<?xml version="1.0" encoding="utf-8"?>
<!-- Generator: Adobe Illustrator 16.0.3, SVG Export Plug-In . SVG Version: 6.00 Build 0)  -->
<!DOCTYPE svg PUBLIC "-//W3C//DTD SVG 1.1//EN" "http://www.w3.org/Graphics/SVG/1.1/DTD/svg11.dtd">
<svg version="1.1" id="Capa_1" xmlns="http://www.w3.org/2000/svg" xmlns:xlink="http://www.w3.org/1999/xlink" x="0px" y="0px"
	 width="128px" height="128px" viewBox="0 0 128 128" enable-background="new 0 0 128 128" xml:space="preserve">
<g>
	<path fill-rule="evenodd" clip-rule="evenodd" d="M110.993,51.854c-19.032,0-37.988,0-56.984,0
		c-0.009-0.194-0.023-0.36-0.024-0.526c-0.003-0.512,0.019-1.026-0.005-1.538c-0.042-0.873,0.163-1.693,0.374-2.535
		c0.158-0.629,0.444-1.173,0.661-1.76c0.116-0.314,0.303-0.591,0.399-0.896c0.128-0.408,0.414-0.703,0.614-1.054
		c0.79-1.383,1.85-2.554,2.997-3.648c0.518-0.495,1.102-0.901,1.679-1.318c0.488-0.353,0.938-0.757,1.425-1.111
		c0.237-0.172,0.526-0.272,0.781-0.425c0.88-0.531,1.778-1.023,2.73-1.419c0.33-0.138,0.609-0.402,0.945-0.514
		c0.488-0.162,0.9-0.514,1.44-0.551c0.153-0.01,0.293-0.142,0.444-0.197c0.558-0.206,1.107-0.439,1.68-0.59
		c0.334-0.089,0.682-0.126,1.018-0.247c0.626-0.224,1.3-0.287,1.932-0.478c0.365-0.111,0.72-0.143,1.084-0.2
		c0.494-0.076,0.974-0.25,1.465-0.363c0.196-0.045,0.406-0.042,0.609-0.05c0.423-0.014,0.857,0.059,1.25-0.176
		c0.028-0.017,0.065-0.018,0.1-0.021c0.879-0.076,1.758-0.196,2.64-0.217c1.554-0.036,3.108-0.019,4.663-0.003
		c0.388,0.004,0.772,0.092,1.159,0.138c0.203,0.024,0.407,0.05,0.61,0.057c0.423,0.016,0.853-0.042,1.249,0.176
		c0.084,0.046,0.204,0.052,0.303,0.039c0.727-0.098,1.417,0.128,2.107,0.273c0.401,0.084,0.794,0.142,1.2,0.179
		c0.345,0.032,0.705,0.125,1.01,0.283c0.214,0.11,0.41,0.12,0.624,0.154c0.261,0.042,0.525,0.106,0.771,0.203
		c0.565,0.225,1.198,0.228,1.737,0.568c0.242,0.152,0.571,0.102,0.861,0.239c0.603,0.283,1.251,0.469,1.878,0.699
		c0.078,0.028,0.141,0.093,0.216,0.133c0.544,0.292,1.064,0.655,1.642,0.851c0.68,0.231,1.267,0.617,1.879,0.951
		c0.578,0.314,1.082,0.761,1.62,1.147c0.211,0.152,0.426,0.296,0.634,0.451c0.428,0.318,0.855,0.633,1.274,0.961
		c0.731,0.574,1.388,1.22,1.933,1.977c0.428,0.593,0.898,1.157,1.316,1.757c0.29,0.416,0.54,0.861,0.779,1.309
		c0.284,0.532,0.539,1.08,0.804,1.622c0.021,0.045,0.045,0.098,0.041,0.145c-0.034,0.477,0.27,0.855,0.37,1.292
		c0.011,0.049,0.045,0.097,0.045,0.146c-0.009,1.107,0.399,2.185,0.237,3.3C111.169,51.341,111.062,51.609,110.993,51.854z"/>
	<path fill-rule="evenodd" clip-rule="evenodd" d="M82.262,77.498c-9.137,0-18.275-0.002-27.413,0.006
		c-0.539,0.002-1.004-0.213-1.502-0.338c-0.454-0.113-0.846-0.338-1.268-0.51c-0.061-0.025-0.138-0.029-0.184-0.07
		c-0.521-0.461-1.098-0.85-1.578-1.369c-0.47-0.51-0.915-1.066-1.149-1.676c-0.269-0.697-0.654-1.402-0.542-2.227
		c0.071-0.52,0.037-1.059,0.007-1.586c-0.031-0.529,0.207-0.967,0.363-1.443c0.169-0.518,0.457-0.953,0.726-1.406
		c0.144-0.24,0.284-0.498,0.48-0.691c0.505-0.498,0.972-1.041,1.617-1.385c0.552-0.293,1.11-0.557,1.697-0.777
		c0.518-0.196,1.03-0.182,1.554-0.184c5.5-0.001,10.999,0.002,16.499-0.008c0.387,0,0.723,0.08,1.063,0.265
		c0.417,0.227,0.868,0.388,1.294,0.596c0.34,0.166,0.663,0.367,0.995,0.546c0.448,0.242,0.897,0.48,1.347,0.721
		c0.029,0.016,0.074,0.016,0.092,0.037c0.526,0.668,1.352,0.902,2.017,1.373c0.799,0.561,1.587,1.133,2.368,1.719
		c0.347,0.26,0.722,0.477,0.998,0.818c0.143,0.174,0.299,0.139,0.45,0.049c0.188-0.109,0.364-0.24,0.542-0.371
		c0.774-0.568,1.544-1.143,2.319-1.709c0.541-0.395,1.044-0.877,1.642-1.15c0.763-0.346,1.343-0.982,2.155-1.232
		c0.272-0.082,0.47-0.33,0.766-0.436c0.462-0.165,0.856-0.506,1.313-0.696c0.604-0.253,1.172-0.548,1.896-0.545
		c5.756,0.039,11.512,0.025,17.268,0.019c0.489,0,0.907,0.217,1.356,0.343c0.554,0.155,1.014,0.472,1.496,0.743
		c0.411,0.23,0.77,0.556,1.072,0.933c0.092,0.115,0.257,0.176,0.34,0.295c0.368,0.529,0.767,1.047,1.06,1.617
		c0.238,0.465,0.401,0.99,0.485,1.506c0.085,0.533,0.036,1.088,0.041,1.635c0.001,0.172-0.03,0.342-0.021,0.512
		c0.022,0.447-0.01,0.877-0.226,1.283c-0.201,0.377-0.244,0.813-0.463,1.193c-0.414,0.715-0.949,1.32-1.547,1.879
		c-0.485,0.455-1.046,0.793-1.637,1.092c-0.415,0.211-0.886,0.258-1.293,0.449c-0.528,0.25-1.062,0.176-1.596,0.176
		C100.195,77.5,91.229,77.498,82.262,77.498z"/>
	<path fill-rule="evenodd" clip-rule="evenodd" d="M105.9,90.613c0.192,0.492,0.378,0.957,0.555,1.426
		c0.035,0.092,0.05,0.197,0.057,0.297c0.011,0.17-0.003,0.344,0.014,0.514c0.08,0.85-0.135,1.637-0.501,2.393
		c-0.073,0.152-0.11,0.318-0.167,0.477c-0.029,0.08-0.045,0.178-0.102,0.232c-0.559,0.52-0.981,1.16-1.605,1.641
		c-0.566,0.434-1.226,0.553-1.828,0.84c-0.703,0.338-1.444,0.217-2.16,0.166c-0.465-0.035-0.916-0.293-1.372-0.451
		c-0.157-0.055-0.315-0.105-0.473-0.16c-0.063-0.023-0.138-0.039-0.181-0.084c-0.531-0.551-1.218-0.934-1.635-1.613
		c-0.556-0.904-1.045-1.939-1.102-2.754c-0.003-0.049-0.036-0.094-0.067-0.168c-0.568,0.225-1.162,0.117-1.747,0.137
		c-0.441,0.014-0.876,0.002-1.314,0.146c-0.298,0.096-0.642,0.047-0.966,0.07c-0.73,0.047-1.46,0.102-2.19,0.146
		c-0.408,0.027-0.818,0.053-1.228,0.055c-3.536,0.002-7.071,0.008-10.608-0.006c-0.594-0.002-1.187-0.105-1.781-0.143
		c-0.511-0.031-1.023-0.037-1.535-0.053c-0.492-0.018-0.979-0.006-1.466-0.162c-0.313-0.1-0.676-0.047-1.017-0.053
		c-0.46-0.006-0.918,0-1.44,0c-0.009,0.33-0.046,0.65-0.017,0.963c0.047,0.48-0.168,0.896-0.291,1.332
		c-0.102,0.352-0.258,0.688-0.391,1.029c-0.018,0.049-0.022,0.113-0.057,0.141c-0.563,0.494-0.881,1.223-1.568,1.596
		c-0.113,0.061-0.186,0.191-0.29,0.27c-0.104,0.08-0.22,0.152-0.341,0.201c-0.281,0.109-0.582,0.178-0.854,0.307
		c-0.432,0.205-0.871,0.357-1.358,0.354c-0.627-0.006-1.263,0.063-1.864-0.201c-0.261-0.113-0.526-0.221-0.792-0.324
		c-0.124-0.051-0.251-0.088-0.377-0.131c-0.08-0.025-0.184-0.029-0.234-0.084c-0.521-0.557-1.166-0.969-1.64-1.598
		c-0.442-0.586-0.59-1.26-0.883-1.889c-0.328-0.705-0.213-1.445-0.155-2.16c0.038-0.467,0.315-0.914,0.488-1.371
		c0.03-0.078,0.104-0.15,0.106-0.229c0.008-0.301,0.148-0.514,0.471-0.674c-0.129-0.125-0.205-0.258-0.312-0.291
		c-0.524-0.156-0.99-0.41-1.418-0.748c-0.244-0.191-0.499-0.373-0.762-0.537c-0.579-0.361-1.105-0.82-1.499-1.342
		c-0.353-0.471-0.837-0.895-0.959-1.525c-0.02-0.102-0.141-0.18-0.202-0.277c-0.348-0.551-0.457-1.184-0.654-1.791
		c-0.387-1.189-0.114-2.4-0.198-3.596c-0.003-0.049,0.015-0.102,0.027-0.148c0.003-0.018,0.019-0.029,0.055-0.076
		c18.942,0,37.911,0,56.885,0c0.183,0.289,0.273,0.594,0.266,0.926c-0.016,0.662,0.085,1.332-0.178,1.973
		c-0.05,0.121-0.05,0.271-0.04,0.404c0.039,0.512-0.189,0.949-0.336,1.416c-0.134,0.424-0.302,0.824-0.519,1.207
		c-0.063,0.111-0.121,0.227-0.194,0.332c-0.561,0.791-1.174,1.533-1.926,2.156c-0.563,0.465-1.101,0.955-1.803,1.217
		C106.098,90.383,106.003,90.521,105.9,90.613z"/>
	<path fill-rule="evenodd" clip-rule="evenodd" d="M82.048,66.428c-0.061-0.02-0.152-0.02-0.186-0.063
		c-0.405-0.547-1.019-0.84-1.533-1.256c-0.512-0.411-1.028-0.825-1.584-1.171c-0.504-0.313-0.981-0.666-1.504-0.948
		c-0.413-0.224-0.811-0.474-1.22-0.703c-0.368-0.206-0.738-0.411-1.118-0.596c-0.269-0.13-0.512-0.312-0.766-0.458
		c-0.449-0.26-0.945-0.418-1.385-0.695c-0.243-0.157-0.539-0.231-0.808-0.352c-0.6-0.267-1.176-0.656-1.804-0.774
		c-0.628-0.119-1.154-0.521-1.819-0.52c-0.313,0-0.626-0.209-0.939-0.323c-0.046-0.018-0.097-0.058-0.141-0.052
		c-0.59,0.081-1.119-0.237-1.695-0.252c-0.066-0.002-0.145,0.008-0.201-0.021c-0.499-0.25-1.034-0.161-1.558-0.188
		c-0.25-0.013-0.498-0.088-0.747-0.138c-0.082-0.017-0.164-0.065-0.245-0.062c-1.161,0.053-2.289-0.34-3.457-0.237
		c-0.56,0.049-1.127-0.011-1.69,0.016c-0.386,0.018-0.77,0.102-1.155,0.15c-0.203,0.025-0.407,0.045-0.611,0.056
		c-0.303,0.014-0.61-0.028-0.888,0.164c-0.087,0.061-0.232,0.061-0.348,0.052c-0.641-0.044-1.213,0.224-1.815,0.357
		c-0.581,0.129-1.11,0.385-1.684,0.512c-0.049,0.01-0.104,0.01-0.149,0.031c-0.759,0.358-1.518,0.716-2.272,1.085
		c-0.101,0.049-0.166,0.169-0.264,0.23c-0.115,0.071-0.247,0.114-0.391,0.178c-0.152-0.404,0.147-0.614,0.255-0.862
		c0.085-0.194,0.278-0.343,0.38-0.564c0.076-0.162,0.393-0.182,0.413-0.45c0.454-0.219,0.736-0.665,1.169-0.901
		c0.471-0.258,0.987-0.434,1.443-0.714c0.208-0.126,0.399-0.133,0.61-0.177c0.404-0.084,0.798-0.213,1.196-0.325
		c0.08-0.022,0.161-0.093,0.234-0.084c0.793,0.099,1.545-0.216,2.329-0.226c0.233-0.003,0.466-0.078,0.699-0.115
		c0.235-0.038,0.47-0.092,0.706-0.1c0.444-0.017,0.89,0.017,1.333-0.011c0.406-0.023,0.808-0.104,1.212-0.15
		c0.288-0.031,0.578-0.047,0.866-0.069c0.679-0.054,1.358-0.11,2.037-0.161c0.272-0.021,0.545-0.041,0.818-0.042
		c0.939-0.006,1.879,0.018,2.819-0.008c0.646-0.019,1.289-0.108,1.936-0.15c0.51-0.033,1.021-0.053,1.535-0.06
		c1.109-0.016,2.224,0.043,3.329-0.039c4.624-0.339,9.253-0.118,13.881-0.163c0.884-0.009,1.771,0.102,2.656,0.132
		c1.076,0.037,2.151,0.05,3.228,0.067c1.006,0.016,2.007,0.02,3.014,0.142c0.961,0.116,1.943,0.062,2.916,0.076
		c0.921,0.014,1.843-0.048,2.756,0.157c0.296,0.066,0.612,0.043,0.919,0.047c0.563,0.006,1.116,0.03,1.677,0.149
		c0.493,0.105,1.018,0.064,1.529,0.076c0.545,0.012,1.09-0.036,1.615,0.183c0.164,0.068,0.372,0.023,0.558,0.048
		c0.285,0.036,0.567,0.098,0.853,0.132c0.269,0.034,0.539,0.055,0.811,0.068c0.319,0.018,0.621,0.019,0.94,0.157
		c0.386,0.169,0.838,0.183,1.257,0.282c0.205,0.049,0.406,0.123,0.596,0.215c0.424,0.209,0.855,0.412,1.253,0.665
		c0.291,0.185,0.505,0.501,0.805,0.657c0.29,0.149,0.423,0.425,0.658,0.611c0.244,0.197,0.428,0.483,0.591,0.758
		c0.161,0.27,0.266,0.574,0.433,0.947c-0.271-0.156-0.481-0.267-0.679-0.395c-0.561-0.368-1.122-0.729-1.778-0.907
		c-0.017-0.003-0.036-0.002-0.05-0.01c-0.526-0.385-1.184-0.463-1.753-0.746c-0.104-0.051-0.225-0.067-0.338-0.096
		c-0.405-0.105-0.813-0.207-1.217-0.315c-0.08-0.022-0.16-0.107-0.23-0.098c-0.691,0.096-1.328-0.234-2.007-0.247
		c-0.284-0.005-0.567-0.089-0.853-0.129c-0.234-0.033-0.472-0.072-0.709-0.073c-0.99-0.008-1.98-0.016-2.972,0.004
		c-0.334,0.007-0.667,0.096-1.002,0.144c-0.151,0.022-0.305,0.045-0.457,0.055c-0.507,0.029-1.01-0.012-1.513,0.176
		c-0.304,0.112-0.677,0.025-1.017,0.055c-0.267,0.022-0.53,0.086-0.797,0.128c-0.167,0.026-0.336,0.039-0.502,0.075
		c-0.311,0.067-0.616,0.168-0.93,0.216c-0.312,0.048-0.614,0.006-0.933,0.175c-0.327,0.174-0.745,0.174-1.118,0.268
		c-0.206,0.052-0.403,0.146-0.604,0.215c-0.402,0.14-0.817,0.253-1.208,0.422c-0.588,0.251-1.239,0.367-1.743,0.802
		c-0.51-0.045-0.819,0.415-1.295,0.511c-0.312,0.063-0.597,0.34-0.927,0.481c-0.403,0.173-0.753,0.47-1.138,0.694
		c-0.312,0.182-0.646,0.323-0.959,0.503c-0.384,0.221-0.739,0.504-1.14,0.688c-0.362,0.164-0.591,0.501-0.981,0.637
		c-0.283,0.099-0.511,0.356-0.763,0.545c-0.302,0.225-0.6,0.454-0.903,0.679c-0.47,0.344-0.943,0.684-1.413,1.029
		C82.285,66.223,82.174,66.324,82.048,66.428z"/>
	<path fill-rule="evenodd" clip-rule="evenodd" d="M33.48,70.656c-2.835,0-5.671-0.006-8.506,0.002
		c-0.943,0.004-1.735-0.395-2.348-1.033c-0.644-0.672-0.962-1.539-0.858-2.5c0.024-0.229,0.117-0.453,0.208-0.668
		c0.157-0.369,0.221-0.793,0.543-1.066c0.711-0.598,1.446-1.133,2.454-1.131c5.671,0.012,11.343,0.012,17.014-0.002
		c0.761-0.003,1.367,0.312,1.953,0.725c0.189,0.135,0.379,0.272,0.549,0.428c0.297,0.273,0.372,0.672,0.515,1.025
		c0.123,0.305,0.19,0.643,0.225,0.971c0.038,0.354,0.01,0.707-0.197,1.031c-0.206,0.322-0.222,0.738-0.504,1.029
		c-0.685,0.701-1.485,1.18-2.49,1.186C39.187,70.664,36.333,70.654,33.48,70.656z"/>
	<path fill-rule="evenodd" clip-rule="evenodd" d="M43.78,55.199c0.309,0.288,0.618,0.576,0.99,0.923
		c0.059,0.157,0.149,0.423,0.259,0.681c0.244,0.568,0.321,1.133,0.061,1.725c-0.127,0.289-0.181,0.608-0.291,0.907
		c-0.051,0.138-0.129,0.289-0.24,0.378c-0.375,0.298-0.758,0.586-1.163,0.839c-0.176,0.109-0.413,0.171-0.622,0.171
		c-4.542,0.009-9.084,0.009-13.625,0.005c-0.44,0-0.811-0.123-1.087-0.527c-0.128-0.188-0.462-0.225-0.628-0.399
		c-0.147-0.158-0.155-0.438-0.287-0.619c-0.473-0.649-0.626-1.394-0.401-2.12c0.215-0.696,0.516-1.423,1.178-1.846
		c0.546-0.35,1.137-0.653,1.812-0.661c1.178-0.013,2.356-0.007,3.535-0.007c2.868-0.001,5.736,0.002,8.605-0.005
		c0.503,0,0.977,0.056,1.418,0.33c0.147,0.092,0.355,0.087,0.535,0.127C43.813,55.132,43.796,55.166,43.78,55.199z"/>
	<path fill-rule="evenodd" clip-rule="evenodd" d="M44.726,79.902c-0.297,0.295-0.594,0.59-0.891,0.887
		c0.017,0.01,0.035,0.02,0.052,0.029c-0.262,0.1-0.535,0.18-0.783,0.305c-0.35,0.18-0.718,0.207-1.095,0.207c-1.28,0-2.56,0-3.839,0
		c-2.27,0-4.54-0.006-6.81,0.006c-0.54,0.002-1.038-0.096-1.501-0.373c-0.055-0.033-0.131-0.031-0.19-0.059
		c-0.15-0.068-0.347-0.107-0.435-0.223c-0.354-0.48-0.842-0.865-1.052-1.443c-0.039-0.109-0.04-0.236-0.041-0.354
		c-0.004-0.494-0.014-0.988,0.005-1.482c0.006-0.18,0.042-0.389,0.144-0.523c0.364-0.484,0.738-0.955,1.237-1.33
		c0.421-0.314,0.842-0.412,1.355-0.412c3.891,0.018,7.782,0.014,11.673,0.006c0.613,0,1.117,0.184,1.489,0.686
		c0.048,0.064,0.121,0.133,0.194,0.152c0.361,0.102,0.493,0.379,0.588,0.701c0.066,0.225,0.137,0.449,0.234,0.66
		c0.326,0.709,0.224,1.373-0.144,2.033c-0.094,0.17-0.101,0.389-0.147,0.584C44.754,79.939,44.74,79.92,44.726,79.902z"/>
	<path fill-rule="evenodd" clip-rule="evenodd" d="M13.648,70.656c-0.836,0-1.674-0.037-2.507,0.01
		c-0.715,0.043-1.329-0.189-1.933-0.51c-0.605-0.322-0.962-0.822-1.25-1.451c-0.372-0.809-0.373-1.566-0.047-2.357
		c0.096-0.23,0.193-0.465,0.322-0.68c0.363-0.604,0.979-0.891,1.576-1.182c0.265-0.128,0.583-0.206,0.877-0.208
		c1.961-0.019,3.923-0.017,5.885-0.004c0.623,0.006,1.163,0.25,1.604,0.703c0.064,0.066,0.18,0.08,0.26,0.134
		c0.162,0.111,0.375,0.203,0.463,0.361c0.208,0.369,0.342,0.783,0.531,1.166c0.319,0.645,0.238,1.277-0.055,1.895
		c-0.172,0.363-0.36,0.725-0.586,1.055c-0.299,0.436-0.818,0.57-1.254,0.816c-0.394,0.221-0.826,0.264-1.274,0.256
		C15.388,70.645,14.518,70.654,13.648,70.656z"/>
</g>
</svg>
